<?xml version="1.0" standalone="no"?>
<!DOCTYPE svg PUBLIC "-//W3C//DTD SVG 20010904//EN"
 "http://www.w3.org/TR/2001/REC-SVG-20010904/DTD/svg10.dtd">
<svg version="1.0" xmlns="http://www.w3.org/2000/svg"
 width="512.000000pt" height="512.000000pt" viewBox="0 0 512.000000 512.000000"
 preserveAspectRatio="xMidYMid meet">

<g transform="translate(0.000000,512.000000) scale(0.100000,-0.100000)"
fill="#000000" stroke="none">
<path d="M0 2560 l0 -2560 2560 0 2560 0 0 2560 0 2560 -2560 0 -2560 0 0
-2560z m2840 1704 c52 -9 142 -32 200 -50 104 -34 330 -137 330 -150 0 -16
-136 10 -209 41 -197 83 -364 115 -601 115 -243 0 -412 -34 -619 -125 -66 -29
-90 -35 -148 -34 l-68 1 118 58 c175 86 326 132 527 160 93 13 358 4 470 -16z
m-15 -175 c104 -20 199 -48 192 -55 -2 -3 -50 7 -106 20 -161 39 -316 51 -468
36 -70 -7 -172 -23 -226 -36 -111 -27 -141 -30 -82 -8 192 72 460 88 690 43z
m-860 -104 c33 -8 80 -22 105 -33 l45 -19 -40 -7 c-22 -4 -54 -16 -71 -27 -38
-23 -111 -103 -116 -126 -2 -10 -28 -34 -57 -55 -65 -45 -43 -52 38 -11 33 17
78 55 120 99 80 87 132 121 164 107 12 -6 59 -38 104 -71 120 -89 225 -223
247 -316 5 -21 0 -43 -19 -81 -42 -87 -162 -156 -276 -158 -74 -2 -119 28
-195 128 -98 131 -250 243 -380 281 -41 12 -85 15 -163 12 -98 -3 -112 -6
-185 -41 -158 -75 -282 -242 -365 -492 -22 -66 -43 -144 -47 -172 -6 -47 -26
-84 -39 -71 -8 8 32 204 56 277 33 101 101 241 164 338 57 87 234 276 285 303
l24 13 -17 -27 c-18 -27 -39 -76 -33 -76 2 0 21 27 42 59 41 63 89 100 163
127 25 9 61 23 80 32 19 8 68 16 110 19 41 2 77 6 79 8 7 7 106 -5 177 -20z
m1442 15 c45 1 207 -55 268 -92 53 -32 63 -44 107 -118 32 -52 38 -38 8 20
-12 23 -16 40 -10 40 23 0 238 -228 289 -305 95 -145 161 -304 201 -485 24
-104 25 -131 6 -124 -7 3 -19 32 -25 65 -16 81 -65 228 -105 315 -92 198 -220
329 -368 376 -66 20 -204 24 -276 8 -116 -27 -270 -131 -360 -243 -97 -120
-134 -154 -181 -167 -83 -22 -217 26 -289 104 -83 90 -74 160 39 302 152 192
420 326 614 308 28 -3 64 -4 82 -4z m-614 -46 c33 -8 34 -17 5 -31 -15 -7 -51
-7 -103 -1 -76 9 -265 5 -330 -7 -28 -5 -76 17 -64 30 22 22 411 29 492 9z
m-1263 -424 c29 -84 77 -146 117 -152 l28 -4 -3 87 c-5 126 9 141 37 37 29
-109 63 -168 98 -168 23 0 25 3 20 33 -7 41 12 107 30 107 8 0 12 -3 10 -7 -8
-14 13 -134 29 -169 15 -31 69 -72 80 -61 3 2 0 24 -5 48 -16 66 -13 79 8 34
10 -22 27 -48 39 -58 17 -16 19 -23 10 -48 -5 -16 -15 -29 -20 -29 -6 0 -51
23 -100 51 -49 28 -112 60 -141 70 -59 22 -157 25 -208 7 -86 -29 -182 -128
-220 -227 l-17 -46 -132 -3 c-119 -2 -135 -1 -166 19 -33 20 -64 55 -64 72 0
5 14 -3 30 -17 55 -45 141 -56 170 -20 13 15 4 74 -11 74 -6 0 -26 12 -44 26
-41 31 -85 115 -85 162 0 32 1 31 33 -29 35 -69 88 -115 150 -129 36 -8 37 -7
30 18 -5 21 -3 24 11 19 23 -9 20 4 -9 44 -56 77 -68 111 -72 194 l-3 80 19
-51 c48 -131 85 -174 148 -174 25 0 42 4 38 9 -3 5 1 16 10 24 13 13 13 17 -2
29 -28 23 -43 75 -43 150 l1 73 25 -76 c28 -89 82 -149 133 -149 16 0 36 -3
45 -6 13 -5 13 1 -4 39 -11 25 -23 67 -26 94 -3 26 -7 61 -9 76 -8 47 9 22 35
-53z m2086 -2 c-1 -42 -10 -87 -19 -105 -24 -46 -22 -51 20 -48 68 7 120 64
152 168 l18 60 6 -49 c7 -56 -3 -109 -30 -156 -10 -18 -17 -43 -15 -55 3 -20
9 -23 46 -23 33 0 48 6 68 28 26 27 59 87 84 151 14 35 14 34 11 -39 -4 -81
-20 -122 -70 -180 -27 -30 -28 -35 -13 -38 13 -3 17 -10 13 -28 -3 -19 0 -24
15 -24 56 0 147 73 179 144 18 41 19 41 19 10 0 -50 -47 -132 -94 -162 -47
-30 -56 -41 -56 -63 -1 -71 133 -69 200 3 30 32 24 5 -6 -32 -45 -53 -70 -60
-214 -60 -116 0 -131 2 -136 18 -36 106 -114 203 -200 247 -47 24 -69 29 -123
28 -80 -1 -127 -17 -252 -88 -52 -30 -101 -55 -107 -55 -20 0 -26 49 -9 68 9
10 25 38 37 62 l21 45 -6 -40 c-4 -22 -9 -50 -12 -62 -6 -28 3 -29 43 -4 38
23 65 94 66 170 0 28 3 51 8 51 19 0 33 -35 34 -83 0 -46 3 -53 20 -55 11 0
27 4 35 11 21 18 56 103 71 175 8 38 16 58 20 50 15 -26 21 -106 11 -146 -9
-41 -9 -42 19 -42 42 0 93 63 120 149 13 39 24 71 26 71 2 0 2 -33 0 -72z
m-1830 -319 c61 -11 194 -66 194 -80 0 -18 -21 -18 -76 2 -33 11 -90 22 -129
25 l-70 5 90 -50 c50 -28 106 -55 126 -61 l35 -10 0 -75 -1 -75 -46 0 c-108 0
-234 64 -334 170 -22 23 -53 48 -69 57 l-29 15 29 19 c39 26 142 59 210 68 6
0 37 -4 70 -10z m1685 -3 c37 -8 91 -27 120 -42 l54 -27 -25 -16 c-14 -8 -52
-41 -85 -72 -33 -31 -80 -70 -104 -88 -53 -38 -156 -71 -220 -71 l-46 0 -1 75
c0 73 1 76 25 82 14 3 71 29 125 57 l100 51 -45 3 c-26 2 -78 -8 -128 -22 -79
-24 -101 -26 -101 -7 0 15 146 73 210 84 44 7 54 7 121 -7z m-1369 -164 c13
-13 48 -40 78 -59 75 -48 108 -80 135 -133 49 -96 52 -178 29 -645 -6 -126 -5
-131 18 -165 24 -36 122 -85 155 -78 21 4 -26 61 -78 94 -46 29 -59 66 -34 94
18 19 18 19 51 -10 19 -16 52 -34 73 -41 47 -14 86 -2 137 43 31 27 31 27 49
8 26 -29 12 -64 -39 -100 -39 -26 -86 -78 -86 -94 0 -7 110 32 135 48 12 8 30
31 39 51 16 33 16 57 5 319 -14 314 -8 390 35 474 28 56 47 73 146 139 78 52
100 82 100 135 0 25 3 28 14 19 18 -15 36 -87 36 -143 0 -73 -27 -109 -104
-140 -37 -15 -80 -37 -96 -48 -34 -24 -80 -112 -80 -154 0 -30 0 -30 29 15 45
70 117 129 158 129 56 0 3 -95 -67 -122 -45 -17 -45 -17 -12 -17 47 -1 107 32
120 66 5 15 20 61 32 101 16 50 26 70 33 63 7 -7 7 -26 -1 -62 -7 -28 -12 -67
-12 -88 0 -59 -24 -124 -69 -188 -22 -32 -41 -68 -41 -80 0 -33 -36 -104 -74
-146 -33 -37 -35 -37 -38 -15 -2 15 -10 -1 -21 -46 -17 -64 -17 -73 -2 -147
15 -72 15 -84 1 -132 -19 -67 -75 -123 -141 -143 -90 -27 -144 -14 -146 34
l-1 27 -12 -28 c-16 -35 -33 -47 -69 -47 -104 0 -193 65 -221 161 -16 53 -16
62 0 129 14 62 14 81 4 132 -13 57 -30 87 -30 51 0 -16 -2 -16 -18 3 -60 74
-73 96 -86 147 -8 31 -26 72 -40 90 -42 54 -66 122 -76 208 -5 45 -14 87 -19
93 -11 12 -4 56 8 56 9 0 38 -83 46 -130 4 -19 12 -42 18 -51 22 -29 81 -59
117 -58 l35 1 -30 11 c-56 22 -77 39 -91 72 -18 44 -18 55 1 55 46 0 131 -68
174 -140 19 -32 21 -33 21 -11 0 89 -63 165 -171 206 -90 35 -104 56 -104 150
0 38 7 88 15 110 l14 40 13 -44 c7 -25 23 -55 35 -69z m-737 -67 c189 -49 316
-169 381 -360 39 -114 39 -256 0 -368 -50 -147 -141 -248 -220 -246 l-31 1 33
11 c37 14 102 63 102 78 0 5 -11 7 -25 3 -35 -9 -68 2 -105 33 -26 21 -33 24
-40 12 -46 -82 -114 -143 -152 -138 -65 8 -61 -13 7 -47 48 -23 64 -26 118
-21 l62 5 -50 -14 c-136 -38 -296 13 -397 126 -46 51 -128 199 -128 230 0 8
15 -18 34 -57 40 -83 64 -102 138 -110 45 -4 58 -1 87 19 39 26 76 93 85 152
l5 40 -31 -38 c-17 -21 -50 -47 -72 -57 -51 -23 -138 -25 -156 -4 -10 12 -9
15 5 15 73 0 171 74 195 146 7 19 10 37 8 39 -2 2 -30 -9 -62 -25 -51 -26 -69
-30 -135 -29 l-76 1 65 17 c69 18 144 53 156 73 5 8 2 9 -9 5 -10 -4 -31 -4
-47 0 -30 5 -30 6 -13 26 10 11 12 17 6 13 -23 -13 -120 -25 -163 -19 l-43 6
51 13 c95 25 143 53 163 98 l18 41 -27 6 c-15 4 -40 7 -57 8 -16 0 -59 15 -94
31 -87 42 -99 36 -103 -48 l-3 -67 -9 63 c-5 34 -12 62 -15 62 -22 0 -105 -67
-163 -130 -63 -69 -67 -72 -73 -49 -7 29 9 108 34 165 10 22 46 70 80 106 83
89 218 159 362 187 75 15 240 12 304 -4z m2733 -5 c148 -35 282 -116 359 -215
36 -45 83 -162 83 -205 0 -14 -5 -32 -10 -40 -8 -13 -12 -11 -27 10 -52 75
-173 180 -208 180 -3 0 -6 -17 -7 -37 l-1 -38 -4 36 c-3 25 -11 40 -28 49 -20
11 -31 9 -86 -19 -34 -17 -76 -31 -93 -31 -51 0 -75 -10 -69 -28 19 -63 26
-71 81 -95 31 -14 75 -29 97 -33 l40 -8 -35 -7 c-32 -8 -67 -6 -127 7 -15 3
-23 0 -23 -10 0 -17 -41 -29 -67 -19 -16 6 -16 5 -4 -11 20 -24 58 -42 138
-65 l68 -20 -76 0 c-65 -1 -85 3 -135 29 -32 16 -59 28 -60 27 -5 -5 27 -84
44 -106 26 -35 88 -69 141 -77 41 -6 43 -8 26 -20 -10 -8 -39 -14 -63 -14 -74
0 -120 19 -164 69 l-40 46 7 -40 c10 -58 46 -126 78 -149 21 -16 44 -21 86
-21 74 1 102 19 141 93 17 31 28 46 24 32 -17 -65 -96 -185 -155 -234 -81 -68
-220 -108 -309 -88 l-45 10 45 1 c27 1 64 11 90 25 41 22 63 45 43 47 -4 0
-27 1 -50 3 -50 3 -82 28 -121 96 -14 25 -27 47 -28 49 -2 1 -15 -9 -31 -23
-29 -27 -79 -42 -113 -33 -55 14 23 -56 87 -79 l38 -13 -36 -1 c-138 -1 -276
259 -254 480 26 255 171 430 410 495 77 21 245 18 343 -5z m-2042 -777 l21
-28 -23 -52 c-13 -29 -28 -53 -33 -53 -14 0 -30 23 -45 69 -14 39 -14 43 8 75
13 19 27 54 31 78 l8 43 6 -52 c4 -29 16 -65 27 -80z m1058 66 c4 -21 16 -49
27 -63 20 -25 20 -27 3 -71 -15 -41 -40 -73 -48 -64 -2 2 -15 27 -29 55 l-26
51 21 21 c15 15 23 38 26 78 5 59 15 56 26 -7z m-1093 -325 c42 -27 91 -57
108 -66 33 -18 36 -25 22 -48 -8 -12 -18 -10 -63 10 -68 32 -188 122 -257 193
-50 52 -54 58 -43 81 11 25 11 25 84 -48 40 -40 107 -95 149 -122z m1319 150
c0 -20 -152 -158 -235 -212 -90 -59 -123 -72 -136 -51 -14 22 -12 25 56 64 85
50 211 152 254 205 32 40 35 42 48 24 7 -10 13 -23 13 -30z m327 -150 c-3 -3
-12 -4 -19 -1 -8 3 -5 6 6 6 11 1 17 -2 13 -5z m457 -50 c-38 -90 -139 -251
-229 -364 -64 -79 -228 -239 -310 -301 -220 -166 -467 -276 -730 -325 -152
-29 -471 -26 -615 5 -351 75 -650 240 -904 499 -123 126 -281 349 -331 469
-19 46 -19 46 50 -57 261 -386 600 -658 977 -784 205 -68 286 -81 533 -80 189
0 234 3 318 22 355 79 659 250 915 516 100 105 254 300 308 391 31 54 38 58
18 9z m-2469 -15 c20 -18 40 -41 46 -51 18 -33 -31 -12 -68 29 -54 60 -38 74
22 22z m1855 12 c0 -12 -77 -81 -91 -81 -12 0 -6 11 28 58 22 29 63 45 63 23z
m-159 -113 c8 -15 6 -18 -12 -18 -12 0 -43 -12 -70 -26 -52 -29 -52 -29 -12
-91 14 -21 16 -21 40 -6 14 9 29 28 35 42 l9 26 20 -25 c43 -55 43 -57 -6 -79
-25 -11 -45 -24 -45 -28 0 -18 51 -83 65 -83 26 0 16 -14 -35 -47 -56 -37 -70
-40 -70 -16 0 22 -115 200 -153 236 -16 16 -27 29 -25 31 1 1 34 22 71 46 38
24 85 56 105 72 l36 29 18 -23 c10 -13 23 -31 29 -40z m-808 24 c76 -2 141 1
159 7 39 14 43 10 24 -27 -48 -92 -232 -108 -313 -27 -36 36 -46 73 -15 59 9
-4 75 -10 145 -12z m-603 -33 c19 -10 51 -33 71 -51 l37 -33 -33 -39 -33 -40
-13 43 c-10 32 -21 47 -45 58 -35 17 -64 12 -64 -11 0 -7 20 -38 44 -67 24
-30 47 -66 51 -81 16 -63 -58 -137 -122 -122 -45 10 -110 52 -133 84 -12 17
-28 30 -35 30 -29 0 -23 19 18 66 l42 48 7 -50 c5 -37 14 -56 38 -76 17 -16
39 -28 50 -28 37 0 34 28 -9 85 -23 30 -46 66 -51 81 -23 58 57 142 119 127
15 -3 42 -14 61 -24z m1103 -142 l15 -44 -42 1 c-22 0 -55 -5 -73 -12 l-31
-14 15 -44 15 -44 39 20 c21 11 39 25 39 30 0 26 17 5 32 -41 16 -50 16 -51
-3 -46 -24 6 -89 -11 -89 -23 0 -22 33 -89 46 -94 26 -10 15 -22 -33 -35 -27
-7 -56 -15 -65 -18 -13 -4 -18 0 -18 17 0 38 -73 260 -93 281 -10 11 -17 22
-16 23 2 2 58 21 124 43 66 23 121 41 122 42 0 0 8 -19 16 -42z m-801 -6 c57
-16 115 -32 130 -35 16 -4 25 -11 23 -19 -25 -71 -25 -70 -43 -54 -9 8 -29 18
-43 22 -26 6 -27 5 -59 -106 -18 -62 -33 -126 -32 -141 0 -15 0 -28 -2 -28
-13 0 -113 34 -120 41 -6 6 -4 14 6 21 18 15 82 224 74 244 -3 7 -25 14 -49
16 l-45 3 15 38 c10 24 21 36 29 33 7 -3 59 -18 116 -35z m389 -60 c3 -3 23
-58 43 -121 21 -63 49 -136 61 -162 l24 -47 -55 -7 c-69 -8 -83 -2 -82 36 1
16 -1 32 -3 34 -2 2 -30 6 -61 9 -63 6 -58 10 -62 -58 -1 -17 -9 -21 -50 -23
-44 -3 -48 -1 -41 15 18 40 95 279 95 295 0 9 -5 20 -10 23 -6 4 -8 10 -6 14
6 8 138 2 147 -8z m-386 -418 c-7 -51 -17 -69 -33 -59 -15 9 8 106 25 106 12
0 14 -9 8 -47z m659 -3 c32 -44 34 -51 19 -57 -9 -4 -18 -2 -21 5 -4 13 -33 5
-49 -15 -17 -22 -34 -6 -27 25 12 54 26 92 34 92 4 0 24 -23 44 -50z m-569 -5
l11 -40 23 38 c16 26 27 35 34 28 13 -13 -42 -101 -65 -101 -12 0 -19 14 -27
50 -14 64 -14 73 1 68 6 -2 16 -22 23 -43z m429 -2 c9 -57 7 -73 -8 -73 -12 0
-26 47 -26 93 0 34 27 17 34 -20z m-226 10 c2 -9 -7 -13 -27 -13 -17 0 -31 -4
-31 -10 0 -5 11 -10 25 -10 14 0 25 -4 25 -10 0 -10 -14 -14 -37 -11 -7 1 -13
-3 -13 -9 0 -5 14 -10 31 -10 20 0 29 -4 27 -12 -6 -16 -32 -22 -64 -14 -21 6
-24 12 -24 55 0 26 3 51 7 55 12 11 76 2 81 -11z m130 8 c7 -4 12 -23 11 -42
-2 -19 1 -40 5 -47 11 -18 -19 -15 -34 3 -17 21 -30 19 -30 -6 0 -12 -5 -19
-12 -17 -8 3 -14 27 -16 61 l-3 57 33 0 c18 0 39 -4 46 -9z"/>
<path d="M1845 3968 c-52 -26 -80 -53 -118 -108 -16 -25 -44 -60 -61 -79 l-31
-34 34 19 c34 19 75 56 156 143 22 24 52 49 68 57 15 8 27 17 27 19 0 11 -38
3 -75 -17z"/>
<path d="M1618 3955 c-39 -27 -135 -152 -124 -162 3 -4 28 17 54 46 26 29 66
72 88 97 46 49 38 57 -18 19z"/>
<path d="M2200 3779 c-41 -19 -87 -52 -125 -88 -57 -56 -125 -101 -152 -101
-6 0 -15 -5 -19 -12 -11 -18 96 -3 151 21 27 12 73 49 113 89 136 140 135 139
32 91z"/>
<path d="M2304 3585 c-90 -76 -190 -135 -228 -135 -47 0 -48 -17 -2 -24 114
-17 247 58 302 170 15 30 25 57 22 59 -3 3 -45 -29 -94 -70z"/>
<path d="M3236 3962 c22 -16 62 -55 90 -87 47 -56 117 -115 136 -115 4 0 -11
24 -34 54 -24 29 -56 70 -72 91 -26 34 -73 62 -136 80 -19 6 -16 0 16 -23z"/>
<path d="M3450 3968 c19 -13 54 -49 79 -82 43 -54 146 -150 126 -116 -17 29
-110 145 -136 170 -27 26 -71 50 -91 50 -6 0 4 -10 22 -22z"/>
<path d="M3111 3825 c92 -93 169 -145 213 -145 17 1 16 4 -9 17 -43 22 -96 75
-91 90 5 13 -67 82 -119 114 -16 11 -43 19 -59 19 -28 0 -25 -5 65 -95z"/>
<path d="M2858 3783 c39 -54 161 -164 204 -182 48 -21 148 -37 148 -24 0 4
-21 16 -47 25 -31 11 -77 43 -131 93 -45 41 -84 75 -87 75 -2 0 -27 9 -55 20
l-52 20 20 -27z"/>
<path d="M2720 3650 c0 -25 30 -80 66 -119 70 -79 167 -118 258 -105 56 7 54
9 -44 38 -51 14 -89 41 -252 174 -15 13 -28 18 -28 12z"/>
<path d="M1285 2924 c-15 -12 -36 -15 -91 -11 -92 7 -206 -6 -279 -32 -107
-38 -225 -130 -248 -193 -11 -31 10 -29 69 7 109 66 310 113 419 100 54 -7
152 -48 190 -79 20 -17 20 -17 0 -7 -66 31 -307 52 -375 32 -24 -7 -23 -8 15
-19 44 -12 142 -23 191 -22 70 1 77 -7 80 -106 6 -140 60 -319 106 -348 27
-16 69 22 94 85 19 47 21 63 13 121 -4 38 -22 100 -38 139 -18 44 -24 66 -15
58 30 -25 64 -97 87 -184 24 -90 24 -90 58 -93 47 -4 117 42 148 98 l24 44
-34 -21 c-19 -11 -50 -23 -69 -27 l-34 -6 26 27 c29 31 78 120 78 142 0 8 -17
-2 -39 -22 -35 -31 -103 -58 -116 -45 -3 2 11 36 30 74 19 38 38 92 42 119 l6
49 -36 -37 c-31 -30 -86 -57 -120 -57 -4 0 3 15 17 33 25 32 60 116 52 124 -2
2 -17 -9 -34 -25 -17 -16 -52 -35 -78 -41 -51 -13 -67 -9 -35 9 12 6 30 28 41
50 25 50 26 69 2 47 -22 -20 -96 -47 -129 -47 l-24 0 20 26 c35 45 26 69 -14
38z"/>
<path d="M1692 2374 c-46 -31 -112 -40 -151 -21 -31 15 -31 15 -31 -13 0 -16
5 -32 10 -35 6 -3 10 -22 10 -41 0 -33 1 -34 38 -34 52 0 113 45 142 104 12
25 20 50 18 54 -1 5 -18 -2 -36 -14z"/>
<path d="M1489 2203 c-13 -35 1 -69 36 -85 36 -16 96 4 145 51 42 40 54 69 23
56 -10 -5 -42 -13 -71 -18 -43 -9 -59 -8 -88 6 l-35 17 -10 -27z"/>
<path d="M1290 2126 c-33 -36 -81 -56 -134 -56 -25 0 -46 -4 -46 -10 0 -16 57
-40 94 -40 44 0 102 47 111 91 9 40 3 44 -25 15z"/>
<path d="M3800 2923 c0 -6 10 -22 21 -37 12 -15 20 -29 18 -30 -9 -8 -116 26
-141 45 -16 11 -28 15 -28 9 0 -22 41 -90 61 -100 32 -17 16 -23 -30 -10 -23
6 -58 25 -78 43 l-36 32 6 -40 c4 -22 20 -59 37 -82 20 -30 25 -43 15 -43 -27
0 -68 21 -104 52 -31 27 -36 29 -39 14 -6 -27 26 -115 60 -169 17 -26 29 -50
26 -52 -10 -10 -86 19 -120 46 -29 23 -38 26 -38 14 0 -25 29 -77 63 -112 l31
-33 -35 0 c-18 0 -49 9 -66 20 -41 24 -42 15 -4 -37 31 -43 100 -83 144 -83
32 0 34 2 52 89 17 84 50 152 97 202 18 19 28 28 21 20 -34 -46 -74 -153 -83
-226 -5 -43 -7 -81 -2 -84 4 -3 14 -26 22 -50 17 -50 55 -83 85 -75 47 12 104
199 108 351 2 80 3 83 30 94 15 6 40 9 57 6 16 -4 32 -3 34 2 3 4 37 11 75 14
39 3 78 10 88 16 57 31 -220 25 -326 -8 -76 -24 -71 -16 24 35 67 37 72 38
170 38 145 -1 303 -45 397 -111 21 -14 41 -23 45 -19 14 13 -71 116 -125 152
-106 71 -198 95 -367 98 -66 2 -130 6 -142 10 -14 5 -23 4 -23 -1z"/>
<path d="M3393 2385 c4 -9 7 -23 7 -31 0 -19 67 -92 101 -110 16 -8 39 -14 54
-14 21 0 25 5 25 28 0 16 7 37 15 48 8 10 15 27 15 36 0 15 -4 15 -31 6 -43
-15 -104 -4 -151 27 -31 21 -39 23 -35 10z"/>
<path d="M3595 2220 c-36 -24 -92 -26 -142 -5 -44 18 -51 14 -30 -19 26 -39
83 -77 125 -83 31 -4 44 0 67 19 26 23 28 28 19 66 l-9 42 -30 -20z"/>
<path d="M3800 2146 c0 -35 30 -86 62 -106 40 -24 90 -26 129 -3 41 24 36 33
-18 33 -55 0 -124 30 -153 67 -15 20 -20 22 -20 9z"/>
<path d="M2537 1405 l-16 -45 36 0 c29 0 34 3 28 18 -3 9 -9 29 -12 45 -8 39
-19 34 -36 -18z"/>
<path d="M2860 1120 c0 -5 5 -10 11 -10 5 0 7 5 4 10 -3 6 -8 10 -11 10 -2 0
-4 -4 -4 -10z"/>
<path d="M2622 1109 c2 -6 8 -10 13 -10 5 0 11 4 13 10 2 6 -4 11 -13 11 -9 0
-15 -5 -13 -11z"/>
</g>
</svg>
