<svg width="82" height="50" viewBox="0 0 82 50" fill="none" xmlns="http://www.w3.org/2000/svg">
<path d="M17.8447 43.3461C17.8447 46.7352 14.2612 48.5833 14.2612 48.5833H12.5602C12.5016 48.4053 12.4678 48.2201 12.4597 48.0329L12.4548 39.77H8.04492V47.9365C8.04535 48.4834 8.26285 49.0078 8.64964 49.3944C9.03643 49.781 9.56088 49.9983 10.1078 49.9985H16.5103C19.2526 48.8283 22.2513 46.1995 22.2513 43.3445V39.7627H17.8463L17.8447 43.3461Z" fill="white"/>
<path d="M4.41674 48.0324L4.41184 39.7695H0.00195312V47.936C0.00260188 48.4828 0.220169 49.0071 0.606912 49.3936C0.993654 49.7802 1.51798 49.9976 2.0648 49.998H5.44163V49.7212C5.14236 49.5488 4.89149 49.3036 4.71231 49.0084C4.53314 48.7131 4.43146 48.3774 4.41674 48.0324Z" fill="white"/>
<path d="M36.7866 39.7627H25.3584V46.8675C25.3584 47.6979 25.6883 48.4943 26.2755 49.0815C26.8626 49.6687 27.659 49.9985 28.4894 49.9985H36.8282C38.031 49.4911 39.0715 48.6635 39.8367 47.6058H35.4317C35.1825 47.9601 34.8968 48.2872 34.5792 48.5817H31.8377C31.5664 48.5826 31.2975 48.5299 31.0467 48.4266C30.7958 48.3232 30.5679 48.1713 30.376 47.9794C30.1841 47.7876 30.0321 47.5598 29.9286 47.3089C29.8251 47.0581 29.7723 46.7893 29.7732 46.518V45.1232H39.8367V42.8129C39.8365 42.004 39.5151 41.2283 38.9431 40.6563C38.3711 40.0843 37.5954 39.7629 36.7866 39.7627ZM35.4317 43.7055H29.7732V41.1796H33.3575C33.6293 41.1786 33.8987 41.2313 34.1501 41.3346C34.4016 41.4379 34.6302 41.5897 34.8229 41.7815C35.0156 41.9733 35.1685 42.2012 35.273 42.4521C35.3775 42.7031 35.4314 42.9722 35.4317 43.2441V43.7055Z" fill="white"/>
<path d="M52.6574 39.7994H50.4459C49.5521 39.7996 48.6705 40.0067 47.8702 40.4046L47.2022 40.737V39.7627H42.7988V47.9365C42.799 48.4839 43.0166 49.0088 43.4038 49.3958C43.7909 49.7828 44.3159 50.0002 44.8633 50.0002H48.2312V49.7233C47.9336 49.548 47.6843 49.3014 47.5058 49.0058C47.3273 48.7101 47.2252 48.3746 47.2087 48.0296L47.2006 42.1212L48.2393 41.5969C48.5056 41.4582 48.8006 41.3835 49.1007 41.3787C49.4009 41.3738 49.6981 41.439 49.9687 41.569C50.2394 41.6989 50.476 41.8901 50.6599 42.1275C50.8438 42.3648 50.9699 42.6417 51.0282 42.9362C51.0472 43.0501 51.0568 43.1653 51.0568 43.2808V43.4891H55.4617V42.6054C55.4617 41.8615 55.1663 41.1481 54.6405 40.6219C54.1146 40.0957 53.4013 39.7999 52.6574 39.7994Z" fill="white"/>
<path d="M80.9548 47.9367V42.7918C80.9648 42.3876 80.8918 41.9855 80.7402 41.6107C80.5886 41.2358 80.3617 40.896 80.0734 40.6123C79.7852 40.3287 79.4418 40.1073 79.0645 39.9617C78.6873 39.8162 78.2841 39.7496 77.8801 39.7661H66.4658V41.183H74.4755C75.0229 41.1832 75.5478 41.4008 75.9348 41.788C76.3218 42.1751 76.5392 42.7001 76.5392 43.2475V43.7089H66.4658V47.1568C66.4658 48.9534 68.6871 50.0044 69.8369 50.0044H81.9821V49.717C81.6684 49.538 81.4079 49.2788 81.2274 48.9659C81.0469 48.6531 80.9528 48.2979 80.9548 47.9367ZM76.5392 48.5835H72.9459C72.3985 48.5835 71.8735 48.3661 71.4864 47.9791C71.0992 47.5921 70.8816 47.0672 70.8814 46.5198V45.1233H76.54L76.5392 48.5835Z" fill="white"/>
<path d="M62.7708 48.0324L62.7634 39.7695H58.3535V47.936C58.3539 48.4827 58.5713 49.007 58.958 49.3936C59.3446 49.7802 59.8688 49.9976 60.4155 49.998H63.7924V49.7212C63.4938 49.5483 63.2437 49.3029 63.0651 49.0077C62.8865 48.7125 62.7853 48.3771 62.7708 48.0324Z" fill="white"/>
<path d="M42.5429 0C42.0453 0.810493 41.3795 1.50475 40.5906 2.03588C39.8016 2.56701 38.9079 2.92265 37.9697 3.07876C37.9697 3.07876 40.8231 6.15915 39.5524 14.5118C39.7369 14.5053 39.9223 14.502 40.1085 14.4979C42.1721 9.96079 43.0114 4.96231 42.5429 0Z" fill="white"/>
<path d="M33.3721 15.5574C33.5477 15.5026 33.7265 15.4504 33.9062 15.4006C34.7245 10.4847 34.2408 5.44028 32.5032 0.769531C32.2325 1.68146 31.7694 2.52471 31.145 3.24235C30.5206 3.96 29.7495 4.53533 28.8838 4.92953C28.8838 4.92953 32.4346 7.16387 33.3721 15.5574Z" fill="white"/>
<path d="M28.1465 17.8847C27.6656 12.923 25.8931 8.17389 23.0057 4.11035C22.9802 5.06111 22.751 5.99532 22.3336 6.84992C21.9161 7.70451 21.3202 8.45958 20.5859 9.06413C20.5859 9.06413 24.5949 10.3054 27.672 18.173C27.8296 18.075 27.9856 17.9803 28.1465 17.8847Z" fill="white"/>
<path d="M14.6969 9.7998C14.9184 10.7244 14.9389 11.6858 14.757 12.619C14.5751 13.5522 14.1951 14.4355 13.6426 15.2093C13.6426 15.2093 17.8369 15.3726 22.8454 22.1777C22.972 22.043 23.0985 21.9082 23.2284 21.7751C21.4798 17.1065 18.5382 12.9775 14.6969 9.7998Z" fill="white"/>
<path d="M19.2148 27.2848C19.3014 27.1215 19.3888 26.9581 19.4811 26.7948C16.5839 22.7394 12.675 19.5136 8.14355 17.4385C8.59682 18.2745 8.86528 19.1981 8.93079 20.1469C8.99631 21.0956 8.85734 22.0474 8.52329 22.9378C8.52329 22.9378 12.6139 22.0117 19.2148 27.2848Z" fill="white"/>
<path d="M17.0297 33.1626C17.0722 32.9805 17.1114 32.8017 17.162 32.622C13.3128 29.4552 8.70104 27.3522 3.78613 26.5225C4.44112 27.2124 4.94044 28.0348 5.25038 28.9342C5.56032 29.8336 5.67366 30.789 5.58275 31.7359C5.58275 31.7359 9.29196 29.7784 17.0297 33.1626Z" fill="white"/>
<path d="M63.4043 31.4372C63.459 31.6152 63.5113 31.7924 63.5611 31.9705C68.477 32.7893 73.5216 32.3053 78.1921 30.5666C77.2804 30.2961 76.4373 29.8329 75.7199 29.2085C75.0025 28.5841 74.4275 27.813 74.0338 26.9473C74.0338 26.9473 71.7986 30.5005 63.4043 31.4372Z" fill="white"/>
<path d="M60.7861 25.7363C60.8849 25.8931 60.9813 26.0499 61.0769 26.2099C66.0378 25.7296 70.7862 23.9574 74.8488 21.07C73.898 21.0444 72.9637 20.8151 72.1091 20.3976C71.2545 19.98 70.4994 19.3838 69.895 18.6494C69.895 18.6494 68.6562 22.6591 60.7861 25.7363Z" fill="white"/>
<path d="M56.7861 20.9105C56.9209 21.0371 57.0556 21.1636 57.1887 21.2943C61.8564 19.5447 65.9845 16.6033 69.1624 12.7628C68.2376 12.9838 67.2762 13.0038 66.343 12.8215C65.4098 12.6392 64.5266 12.2588 63.7529 11.7061C63.7529 11.7061 63.5929 15.9004 56.7861 20.9105Z" fill="white"/>
<path d="M51.6758 17.2781C51.8391 17.3639 52.0024 17.4521 52.1658 17.5419C56.2216 14.6461 59.4473 10.7375 61.5213 6.20605C60.6853 6.65931 59.7618 6.92797 58.8131 6.9939C57.8644 7.05983 56.9126 6.9215 56.022 6.58824C56.022 6.58824 56.9481 10.6813 51.6758 17.2781Z" fill="white"/>
<path d="M46.3365 15.2245C49.5048 11.3777 51.609 6.7674 52.4393 1.85352C51.7491 2.50781 50.9265 3.00634 50.0271 3.31544C49.1277 3.62454 48.1724 3.73701 47.2258 3.64524C47.2258 3.64524 49.1858 7.35771 45.7959 15.0938C45.978 15.1355 46.1569 15.1779 46.3365 15.2245Z" fill="white"/>
<path d="M45.168 33.6481L45.1247 33.586C44.9668 33.7014 44.8009 33.8054 44.6282 33.8972C44.5205 33.9645 44.3971 34.0026 44.2702 34.0076C44.1433 34.0126 44.0173 33.9844 43.9046 33.9257C43.716 33.8237 43.5886 33.5697 43.5886 32.9278V26.9736H43.5069L40.585 28.58V28.7025C40.7622 28.735 40.9287 28.8104 41.0701 28.9222C41.1116 28.9582 41.1448 29.0029 41.1674 29.0531C41.1899 29.1033 41.2013 29.1578 41.2007 29.2129V32.2345C41.2007 33.7444 41.8328 34.7203 42.812 34.7203C43.7017 34.6618 44.5395 34.2805 45.168 33.6481Z" fill="white"/>
<path d="M48.4899 34.419C48.2312 34.1899 48.0306 33.9027 47.9045 33.581C47.7785 33.2593 47.7305 32.9123 47.7647 32.5685V26.9736H47.683L45.376 28.2558V34.5358H48.4915L48.4899 34.419Z" fill="white"/>
<path d="M39.0174 34.4206C38.7573 34.1921 38.5554 33.9049 38.4286 33.5828C38.3017 33.2607 38.2536 32.9129 38.2881 32.5685V25.0186H38.2064L35.8994 26.3325V34.5358H39.0206L39.0174 34.4206Z" fill="white"/>
<path d="M55.3908 26.9258C55.3141 26.9185 55.2381 26.9144 55.1638 26.9144C54.7682 26.9154 54.3797 27.0196 54.0367 27.2167C53.6937 27.4138 53.4081 27.6969 53.2079 28.0381L52.9319 28.4815V24.1084H52.8502L50.4697 25.4322L50.1586 25.5955L50.0059 25.6772C50.0571 25.6773 50.1082 25.6822 50.1586 25.6919C50.2454 25.7054 50.3273 25.7411 50.3962 25.7956C50.4448 25.836 50.4834 25.8871 50.5089 25.9449C50.5344 26.0027 50.5462 26.0657 50.5432 26.1288V34.7036H50.6755L52.9327 33.8673V29.4958C52.9327 28.3844 53.4578 27.9875 53.9086 27.9875C54.3798 27.9875 54.985 28.1508 54.985 30.1581V31.6861C54.985 33.5505 54.2924 33.8673 53.8416 33.8673C53.6212 33.8754 53.4017 33.8355 53.1981 33.7505L53.1532 33.8085L53.1932 33.8559C53.4724 34.1525 53.8157 34.3816 54.1968 34.5255C54.5779 34.6694 54.9869 34.7245 55.3925 34.6864C57.2413 34.4994 57.6791 32.8457 57.6791 31.2647V30.4546C57.6758 28.7396 57.2397 27.1128 55.3908 26.9258Z" fill="white"/>
<path d="M24.3069 29.8133C24.2997 30.4523 24.4235 31.086 24.6708 31.6752C24.918 32.2644 25.2834 32.7967 25.7445 33.2392C26.2055 33.6817 26.7523 34.025 27.3512 34.2479C27.9501 34.4708 28.5883 34.5686 29.2264 34.5352C30.5404 34.5352 32.0724 34.4992 32.9609 34.4739V30.7582H32.7821C32.2374 32.037 31.0467 34.3 29.451 34.2371C27.928 34.175 27.8512 32.0689 27.8512 30.5761V28.9158C27.8512 27.423 27.928 25.3168 29.451 25.2548C31.0467 25.1919 32.2374 27.4548 32.7821 28.7337H32.9609V25.7048C31.7677 25.245 30.5047 24.9923 29.2264 24.9575C28.5883 24.9242 27.9501 25.0221 27.3513 25.245C26.7525 25.4679 26.2057 25.8112 25.7447 26.2537C25.2837 26.6962 24.9183 27.2284 24.671 27.8176C24.4237 28.4068 24.2998 29.0404 24.3069 29.6794C24.3069 29.6973 24.3069 29.7161 24.3069 29.7325V29.761C24.3069 29.779 24.3069 29.7953 24.3069 29.8133Z" fill="white"/>
</svg>
